<svg xmlns="http://www.w3.org/2000/svg" viewBox="0 0 400 300" width="406" height="306" class="illustration styles_illustrationTablet__1DWOa"><g id="_273_businesswoman_outline" data-name="#273_businesswoman_outline"><path d="M280.13,162.29a79.83,79.83,0,0,1-20.27,53.28,80.6,80.6,0,0,1-25.2,19q-2.83,1.37-5.78,2.5A77.21,77.21,0,0,1,218,240.39c-1.08.26-2.16.48-3.26.67q-3.39.65-6.89,1c-2,.21-4.1.32-6.19.36-.56,0-1.11,0-1.67,0s-1.18,0-1.76,0q-3.09-.06-6.1-.36-3.49-.33-6.89-1c-1.1-.19-2.18-.41-3.26-.67a77.21,77.21,0,0,1-10.87-3.33q-2.94-1.14-5.78-2.5a80.16,80.16,0,0,1,58.49-148.8,76.75,76.75,0,0,1,8.47,3.18,80.21,80.21,0,0,1,47.83,73.35Z" fill="#fff"></path><path d="M200,243.43c-.6,0-1.2,0-1.79,0-2,0-4.11-.16-6.17-.37-2.31-.22-4.66-.55-7-1-1.17-.21-2.25-.43-3.3-.68a78.69,78.69,0,0,1-11-3.38c-2-.79-4-1.64-5.85-2.53a81.68,81.68,0,0,1-16-10.14A81.16,81.16,0,0,1,224.12,84.8,77.76,77.76,0,0,1,232.7,88a81.14,81.14,0,0,1,18.38,137.29,81.21,81.21,0,0,1-16,10.14c-1.83.89-3.8,1.74-5.85,2.53a78.69,78.69,0,0,1-11,3.38c-1.05.25-2.13.47-3.31.68-2.31.43-4.66.76-7,1-2,.21-4.08.33-6.26.37C201.13,243.42,200.57,243.43,200,243.43Zm0-160.27a79.16,79.16,0,0,0-34.22,150.5c1.79.86,3.71,1.69,5.7,2.47a76.56,76.56,0,0,0,10.73,3.29c1,.24,2.07.46,3.21.66,2.27.42,4.56.75,6.82,1,2,.21,4,.33,6,.36,1.13,0,2.25,0,3.38,0,2.14,0,4.19-.16,6.11-.36,2.27-.21,4.56-.54,6.82-1,1.15-.2,2.2-.42,3.21-.66a75.75,75.75,0,0,0,10.73-3.29c2-.78,3.92-1.61,5.71-2.47a79.15,79.15,0,0,0-2.33-143.8,76.57,76.57,0,0,0-8.36-3.15A79.5,79.5,0,0,0,200,83.16Z" fill="#093f68"></path><path d="M180,57.34s-10.88-3.19-21.19,8c-9.65,10.43-9.13,25.41-9.62,37.85-.34,8.66-1.26,19-4.8,27-1.4,3.18-4.25,5.1-5,8.65A13.56,13.56,0,0,0,142,149.75c3.69,4.72,9.86,7,15.89,7.62l4-8.67a19.81,19.81,0,0,1,4,9.15c.58,3.67,24.76,2.44,27.84,2.45,13.23.06,27.48.41,40.4-2.64a5.74,5.74,0,0,0,3.22-1.57,5.35,5.35,0,0,0,.95-2.26,37.85,37.85,0,0,0,1-8.75,11.34,11.34,0,0,1,2.38,5.49c.14,1.05.21,2.26,1.06,2.9s2.16.39,3.23.07c6.12-1.82,15.12-4.65,15.72-12a10.75,10.75,0,0,0-2.56-7.73c-.82-1-1.81-1.79-2.57-2.8-1.7-2.23-2.18-5.1-2.61-7.85a157.75,157.75,0,0,1-2.14-23.56c-.06-10.47-2.48-21-8.3-30C230.42,49.27,195.25,40,180,57.34Z" fill="#725858"></path><path d="M182.77,161.48c-12.46,0-17.46-1-17.85-3.48a18.69,18.69,0,0,0-2.83-7.32l-3.27,7.1a1,1,0,0,1-1,.58c-4.18-.41-11.89-2-16.58-8a14.57,14.57,0,0,1-2.81-11.74,13.63,13.63,0,0,1,2.93-5.48,16.72,16.72,0,0,0,2.15-3.37c3.58-8.13,4.4-18.51,4.72-26.66.05-1.17.08-2.37.12-3.58.36-11.81.78-25.19,9.76-34.91,9.31-10.08,19-8.93,21.58-8.4,6-6.53,15.26-9.69,26.15-8.9,15.39,1.11,30.89,9.82,38.57,21.66,5.47,8.44,8.39,19,8.46,30.57A154.19,154.19,0,0,0,255,123c.39,2.49.84,5.32,2.42,7.4a14.56,14.56,0,0,0,1.36,1.52c.4.4.8.81,1.17,1.25a11.74,11.74,0,0,1,2.8,8.45c-.67,8.21-10.54,11.15-16.43,12.91-.89.26-2.74.81-4.12-.23a4.44,4.44,0,0,1-1.41-3.24l0-.32a10.44,10.44,0,0,0-.55-2.15,36.25,36.25,0,0,1-.9,5.5,6.12,6.12,0,0,1-1.16,2.67,6.51,6.51,0,0,1-3.75,1.9c-12,2.84-24.92,2.76-37.42,2.69l-3.21,0-2.32,0C188.21,161.44,185.33,161.48,182.77,161.48ZM161.9,147.7a1,1,0,0,1,.78.38,20.72,20.72,0,0,1,4.22,9.61c.34.67,3.44,2.22,24.47,1.66l2.39,0,3.21,0c12.38.07,25.19.14,36.95-2.63a5,5,0,0,0,2.68-1.24,4.46,4.46,0,0,0,.75-1.85,37,37,0,0,0,1-8.52,1,1,0,0,1,1.77-.62,12.17,12.17,0,0,1,2.6,6l0,.34c.11.81.21,1.58.64,1.91s1.46.16,2.34-.1c5.4-1.61,14.44-4.3,15-11.15a9.68,9.68,0,0,0-2.33-7c-.33-.4-.7-.77-1.07-1.14a18.2,18.2,0,0,1-1.53-1.71c-1.88-2.48-2.39-5.71-2.8-8.3a156.67,156.67,0,0,1-2.15-23.71c-.06-11.18-2.88-21.38-8.14-29.49-7.35-11.35-22.23-19.69-37-20.76-10.51-.75-19.35,2.32-24.91,8.68a1,1,0,0,1-1,.3c-.45-.13-10.46-2.84-20.18,7.68-8.48,9.18-8.88,22.16-9.23,33.62,0,1.22-.07,2.42-.12,3.6-.32,8.32-1.17,19-4.88,27.39a18.18,18.18,0,0,1-2.4,3.76,12.1,12.1,0,0,0-2.57,4.7,12.51,12.51,0,0,0,2.44,10.08c4,5.11,10.52,6.68,14.49,7.16l3.69-8a1,1,0,0,1,.79-.57Z" fill="#093f68"></path><path d="M250.45,206.34v18.21a80.19,80.19,0,0,1-15.79,10q-2.83,1.37-5.78,2.5A77.21,77.21,0,0,1,218,240.39c-1.08.26-2.16.48-3.26.67q-3.39.65-6.89,1c-2,.21-4.1.32-6.19.36-.56,0-1.11,0-1.67,0s-1.18,0-1.76,0q-3.09-.06-6.1-.36-3.49-.33-6.89-1c-1.1-.19-2.18-.41-3.26-.67a77.21,77.21,0,0,1-10.87-3.33q-2.94-1.14-5.78-2.5a80.19,80.19,0,0,1-15.79-10V206.34c0-22.47,15.28-40.7,34.14-40.7h32.62C235.17,165.64,250.45,183.87,250.45,206.34Z" fill="#68e1fd"></path><path d="M200,243.43c-.6,0-1.2,0-1.79,0-2,0-4.11-.16-6.17-.37-2.31-.22-4.66-.55-7-1-1.17-.21-2.25-.43-3.3-.68a78.69,78.69,0,0,1-11-3.38c-2-.79-4-1.64-5.85-2.53a81.68,81.68,0,0,1-16-10.14,1,1,0,0,1-.37-.77V206.34c0-23,15.76-41.7,35.14-41.7h32.62c19.38,0,35.14,18.71,35.14,41.7v18.21a1,1,0,0,1-.37.77,81.21,81.21,0,0,1-16,10.14c-1.83.89-3.8,1.74-5.85,2.53a78.69,78.69,0,0,1-11,3.38c-1.05.25-2.13.47-3.31.68-2.31.43-4.66.76-7,1-2,.21-4.08.33-6.26.37C201.13,243.42,200.57,243.43,200,243.43Zm-49.45-19.36a79.34,79.34,0,0,0,15.23,9.59c1.79.86,3.71,1.69,5.7,2.47a76.56,76.56,0,0,0,10.73,3.29c1,.24,2.07.46,3.21.66,2.27.42,4.56.75,6.82,1,2,.21,4,.33,6,.36,1.13,0,2.25,0,3.38,0,2.14,0,4.19-.16,6.11-.36,2.27-.21,4.56-.54,6.82-1,1.15-.2,2.2-.42,3.21-.66a75.75,75.75,0,0,0,10.73-3.29c2-.78,3.92-1.61,5.71-2.47a79.65,79.65,0,0,0,15.23-9.59V206.34c0-21.89-14.87-39.7-33.14-39.7H183.69c-18.27,0-33.14,17.81-33.14,39.7Zm99.9.48h0Z" fill="#093f68"></path><path d="M250.85,206.34v18.21a80.19,80.19,0,0,1-15.79,10q-2.84,1.37-5.78,2.5a77.21,77.21,0,0,1-10.87,3.33c-1.08.26-2.16.48-3.26.67q-3.39.65-6.89,1c-2,.21-4.1.32-6.19.36-.56,0-1.11,0-1.67,0s-1.18,0-1.76,0q-3.09-.06-6.1-.36-3.49-.33-6.89-1c-1.1-.19-2.19-.41-3.26-.67a77.21,77.21,0,0,1-10.87-3.33q-2.94-1.14-5.78-2.5a80.19,80.19,0,0,1-15.79-10V206.34c0-22.47,15.28-40.7,34.14-40.7h32.62C235.57,165.64,250.85,183.87,250.85,206.34Z" fill="#68e1fd"></path><path d="M200.4,243.43c-.6,0-1.2,0-1.79,0-2.07,0-4.15-.16-6.17-.36-2.32-.22-4.67-.56-7-1-1.15-.2-2.27-.43-3.31-.68a78.22,78.22,0,0,1-11-3.37c-2-.78-4-1.64-5.85-2.53a80.88,80.88,0,0,1-16-10.13,1,1,0,0,1-.37-.78V206.34c0-23,15.76-41.7,35.14-41.7h32.62c19.38,0,35.14,18.71,35.14,41.7v18.21a1,1,0,0,1-.37.78,80.88,80.88,0,0,1-16,10.13c-1.85.89-3.82,1.75-5.85,2.53a79,79,0,0,1-11,3.38c-1.07.25-2.16.48-3.31.68-2.29.43-4.64.77-7,1-1.95.2-4,.32-6.26.36C201.53,243.42,201,243.43,200.4,243.43ZM151,224.07a79.27,79.27,0,0,0,15.22,9.59c1.81.87,3.73,1.7,5.71,2.47a78.56,78.56,0,0,0,10.73,3.29c1,.24,2.08.46,3.21.65,2.26.44,4.55.76,6.81,1,2,.2,4,.32,6,.36,1.13,0,2.25,0,3.37,0,2.22,0,4.22-.16,6.13-.35,2.27-.22,4.56-.54,6.8-1,1.13-.2,2.18-.41,3.22-.66a78.26,78.26,0,0,0,10.74-3.29c2-.77,3.9-1.6,5.71-2.47a79.27,79.27,0,0,0,15.22-9.59V206.34c0-21.89-14.87-39.7-33.14-39.7H184.09c-18.27,0-33.14,17.81-33.14,39.7Zm99.9.48h0Z" fill="#093f68"></path><path d="M168.31,235.56a1,1,0,0,1-1-1V207.84c-.45-1.53-3.82-13.5-1.05-21a1,1,0,1,1,1.88.7c-2.67,7.18,1.09,19.69,1.13,19.82a1.35,1.35,0,0,1,0,.29v26.86A1,1,0,0,1,168.31,235.56Z" fill="#093f68"></path><path d="M231.69,235.56a1,1,0,0,1-1-1V207.7a1.35,1.35,0,0,1,0-.29c0-.13,3.8-12.65,1.13-19.82a1,1,0,0,1,1.88-.7c2.77,7.45-.6,19.42-1.05,21v26.72A1,1,0,0,1,231.69,235.56Z" fill="#093f68"></path><path d="M214,165.64v75.42a63.15,63.15,0,0,1-6.33,1c-1.88.21-3.77.32-5.69.36-.52,0-1,0-1.54,0l-1.62,0c-1.89,0-3.75-.16-5.6-.36a62.71,62.71,0,0,1-6.33-1V165.64Z" fill="#fff"></path><path d="M200.44,243.43c-.55,0-1.11,0-1.65,0-1.9,0-3.82-.16-5.68-.37a64.47,64.47,0,0,1-6.43-1,1,1,0,0,1-.79-1V165.64a1,1,0,0,1,1-1H214a1,1,0,0,1,1,1v75.42a1,1,0,0,1-.8,1,64.47,64.47,0,0,1-6.43,1c-1.81.21-3.7.33-5.77.37Q201.24,243.43,200.44,243.43Zm-12.55-3.19c1.8.35,3.62.62,5.43.81s3.67.31,5.53.35c1,0,2.06,0,3.09,0,2,0,3.86-.16,5.61-.35s3.65-.46,5.45-.81v-73.6H187.89Z" fill="#093f68"></path><path d="M186.89,222.59a1,1,0,0,1-.89-.53l-11.18-21a1,1,0,0,1,0-1l6-10.48-7-8.47a1,1,0,0,1,0-1.27L186.11,165a1,1,0,0,1,1.55,1.28L176,180.48l6.9,8.37A1,1,0,0,1,183,190l-6.1,10.59,10.92,20.54a1,1,0,0,1-.88,1.47Z" fill="#093f68"></path><path d="M214.94,222.59a1,1,0,0,1-.47-.12,1,1,0,0,1-.41-1.35L225,200.58,218.88,190a1,1,0,0,1,.09-1.14l6.9-8.37-11.7-14.2a1,1,0,0,1,1.55-1.28l12.22,14.85a1,1,0,0,1,0,1.27l-7,8.47,6,10.48a1,1,0,0,1,0,1l-11.18,21A1,1,0,0,1,214.94,222.59Z" fill="#093f68"></path><path d="M213.21,165.64c-1.38,6.28-12.77,19.06-12.77,19.06s-11.38-12.78-12.76-19.06Z" fill="#ffc9b0"></path><path d="M200.44,185.7a1,1,0,0,1-.74-.33c-.48-.53-11.58-13.05-13-19.52a1,1,0,0,1,.2-.84,1,1,0,0,1,.78-.37h25.53a1,1,0,0,1,.78.37,1,1,0,0,1,.19.84c-1.42,6.47-12.52,19-13,19.52A1,1,0,0,1,200.44,185.7ZM189,166.64c1.94,5.26,9.08,13.82,11.42,16.54,2.34-2.72,9.49-11.28,11.43-16.54Z" fill="#093f68"></path><polyline points="194 168.66 194 156.6 206.8 156.6 206.8 168.66" fill="#ffc9b0"></polyline><path d="M206.8,169.66a1,1,0,0,1-1-1V157.6H195v11.06a1,1,0,0,1-2,0V156.6a1,1,0,0,1,1-1h12.8a1,1,0,0,1,1,1v12.06A1,1,0,0,1,206.8,169.66Z" fill="#093f68"></path><ellipse cx="163.81" cy="123.34" rx="12.44" ry="10.72" fill="#ffc9b0"></ellipse><path d="M163.81,135.06c-7.41,0-13.44-5.26-13.44-11.72s6-11.72,13.44-11.72,13.44,5.26,13.44,11.72S171.22,135.06,163.81,135.06Zm0-21.44c-6.3,0-11.44,4.36-11.44,9.72s5.14,9.72,11.44,9.72,11.44-4.36,11.44-9.72S170.12,113.62,163.81,113.62Z" fill="#093f68"></path><ellipse cx="236.32" cy="123.34" rx="12.44" ry="10.72" fill="#ffc9b0"></ellipse><path d="M236.33,135.06c-7.41,0-13.44-5.26-13.44-11.72s6-11.72,13.44-11.72,13.43,5.26,13.43,11.72S243.73,135.06,236.33,135.06Zm0-21.44c-6.31,0-11.44,4.36-11.44,9.72s5.13,9.72,11.44,9.72,11.43-4.36,11.43-9.72S242.63,113.62,236.33,113.62Z" fill="#093f68"></path><path d="M223.21,91.55,211.08,76s-2.73,9.6-4.41,15.55l-19.13,0L183,77.52l-5.3,13.9-14.84,0v29.39a37.51,37.51,0,0,0,37.51,37.52h0a37.51,37.51,0,0,0,37.51-37.52V91.59Z" fill="#ffc9b0"></path><path d="M200.4,159.28a38.56,38.56,0,0,1-38.51-38.52V91.37a1,1,0,0,1,.29-.7,1,1,0,0,1,.71-.3h0l14.15,0,5.06-13.26a1,1,0,0,1,1.88,0l4.29,13.24,17.65,0c1.68-6,4.2-14.83,4.2-14.83a1,1,0,0,1,.77-.7,1,1,0,0,1,1,.36L223.7,90.55l14.22,0a1,1,0,0,1,1,1v29.17A38.56,38.56,0,0,1,200.4,159.28Zm-36.51-66.9v28.38a36.51,36.51,0,1,0,73,0V92.59l-13.7,0a1,1,0,0,1-.79-.38l-10.92-14-3.87,13.65a1,1,0,0,1-1,.73h0l-19.13,0a1,1,0,0,1-.95-.7L183,80.52l-4.29,11.25a1,1,0,0,1-.93.65h0Z" fill="#093f68"></path><circle cx="181.7" cy="118.32" r="3.55" fill="#093f68"></circle><circle cx="218.3" cy="118.32" r="3.55" fill="#093f68"></circle><path d="M200,131.25a23.42,23.42,0,0,1-3.44-.28,1,1,0,0,1-.81-1.16,1,1,0,0,1,1.16-.81,16.86,16.86,0,0,0,5.37,0c.31-.92-1-4.82-3-8.52a1,1,0,1,1,1.77-.93c1,1.85,4,8.06,3,10.34a1.78,1.78,0,0,1-1.22,1A11.83,11.83,0,0,1,200,131.25Z" fill="#093f68"></path><path d="M200.4,143.07a64,64,0,0,1-14-1.35,1,1,0,1,1,.47-1.94,64.05,64.05,0,0,0,13.52,1.29,51.9,51.9,0,0,0,12.68-1.28,1,1,0,1,1,.55,1.92C213.43,141.77,208.78,143.07,200.4,143.07Z" fill="#093f68"></path><path d="M187.75,108.6H171.28a1.59,1.59,0,0,1,0-3.18h16.47a1.59,1.59,0,0,1,0,3.18Z" fill="#093f68"></path><path d="M228.72,108.6H212.25a1.59,1.59,0,0,1,0-3.18h16.47a1.59,1.59,0,0,1,0,3.18Z" fill="#093f68"></path><path d="M195.49,191.19h0a1,1,0,0,1-.74-.35c-8.84-10.41-8.84-10.75-8.84-11.2a1,1,0,0,1,1.93-.36c.47.76,4.15,5.21,7.69,9.4L199.7,184a1,1,0,0,1,1.48,1.34l-5,5.49A1,1,0,0,1,195.49,191.19Zm-7.6-11.55h0Z" fill="#093f68"></path><path d="M205,191.19a1,1,0,0,1-.74-.33l-5-5.49a1,1,0,0,1,1.48-1.34l4.19,4.65c3.54-4.19,7.22-8.64,7.69-9.4a1,1,0,0,1,1.93.36c0,.45,0,.79-8.84,11.2a1,1,0,0,1-.74.35Z" fill="#093f68"></path><path d="M200.4,243.43a1,1,0,0,1-1-1V187.24a1,1,0,0,1,2,0v55.19A1,1,0,0,1,200.4,243.43Z" fill="#093f68"></path><rect x="137.14" y="186.01" width="17.12" height="17.12" fill="#ffc9b0"></rect><path d="M154.26,204.13H137.14a1,1,0,0,1-1-1V186a1,1,0,0,1,1-1h17.12a1,1,0,0,1,1,1v17.12A1,1,0,0,1,154.26,204.13Zm-16.12-2h15.12V187H138.14Z" fill="#093f68"></path><path d="M170.11,219.63a1,1,0,0,1-1-1v-18a1,1,0,1,1,2,0v18A1,1,0,0,1,170.11,219.63Z" fill="#093f68"></path><path d="M159.85,197.05a2,2,0,0,1-2-2v-5.46c0-1.41-1.58-2.61-3.45-2.61H136.28c-1.86,0-3.44,1.2-3.44,2.61v5.46a2,2,0,0,1-4,0v-5.46c0-3.64,3.34-6.61,7.44-6.61H154.4c4.11,0,7.45,3,7.45,6.61v5.46A2,2,0,0,1,159.85,197.05Z" fill="#093f68"></path><rect x="108.04" y="195.05" width="74.61" height="49.71" rx="3.69" fill="#f56132"></rect><path d="M179,245.76H111.73a4.7,4.7,0,0,1-4.69-4.69V198.75a4.71,4.71,0,0,1,4.69-4.7H179a4.71,4.71,0,0,1,4.7,4.7v42.32A4.7,4.7,0,0,1,179,245.76Zm-67.22-49.71a2.7,2.7,0,0,0-2.69,2.7v42.32a2.7,2.7,0,0,0,2.69,2.69H179a2.7,2.7,0,0,0,2.7-2.69V198.75a2.7,2.7,0,0,0-2.7-2.7Z" fill="#093f68"></path><path d="M172.14,212.72h-53.6a7.33,7.33,0,0,1-7.05-5.35L108.86,198a2.29,2.29,0,0,1,2.2-2.91h68.56a2.29,2.29,0,0,1,2.21,2.91l-2.64,9.41A7.31,7.31,0,0,1,172.14,212.72Z" fill="#f56132"></path><path d="M172.14,213.72h-53.6a8.35,8.35,0,0,1-8-6.08l-2.64-9.41a3.3,3.3,0,0,1,3.17-4.18h68.56a3.29,3.29,0,0,1,3.17,4.18l-2.64,9.41A8.34,8.34,0,0,1,172.14,213.72Zm-61.08-17.67a1.29,1.29,0,0,0-1.24,1.64l2.64,9.41a6.34,6.34,0,0,0,6.08,4.62h53.6a6.34,6.34,0,0,0,6.09-4.62l2.64-9.41a1.28,1.28,0,0,0-.22-1.13,1.3,1.3,0,0,0-1-.51Z" fill="#093f68"></path><rect x="143.27" y="207.79" width="4.15" height="10.68" rx="1.11" fill="#ffbc0e"></rect><path d="M146.3,219.47h-1.92a2.12,2.12,0,0,1-2.11-2.12V208.9a2.12,2.12,0,0,1,2.11-2.11h1.92a2.12,2.12,0,0,1,2.12,2.11v8.45A2.12,2.12,0,0,1,146.3,219.47Zm-1.92-10.68a.11.11,0,0,0-.11.11v8.45a.11.11,0,0,0,.11.12h1.92a.12.12,0,0,0,.12-.12V208.9a.11.11,0,0,0-.12-.11Z" fill="#093f68"></path><rect x="136.39" y="178.42" width="4.38" height="11.47" rx="2.19" fill="#ffc9b0"></rect><path d="M138.58,190.9a3.2,3.2,0,0,1-3.19-3.2v-7.09a3.19,3.19,0,1,1,6.38,0v7.09A3.2,3.2,0,0,1,138.58,190.9Zm0-11.48a1.2,1.2,0,0,0-1.19,1.19v7.09a1.19,1.19,0,1,0,2.38,0v-7.09A1.19,1.19,0,0,0,138.58,179.42Z" fill="#093f68"></path><rect x="140.77" y="178.42" width="4.38" height="11.47" rx="2.19" fill="#ffc9b0"></rect><path d="M143,190.9a3.2,3.2,0,0,1-3.19-3.2v-7.09a3.2,3.2,0,0,1,6.39,0v7.09A3.21,3.21,0,0,1,143,190.9Zm0-11.48a1.2,1.2,0,0,0-1.19,1.19v7.09a1.2,1.2,0,1,0,2.39,0v-7.09A1.2,1.2,0,0,0,143,179.42Z" fill="#093f68"></path><rect x="145.16" y="178.42" width="4.38" height="11.47" rx="2.19" fill="#ffc9b0"></rect><path d="M147.35,190.9a3.2,3.2,0,0,1-3.19-3.2v-7.09a3.19,3.19,0,1,1,6.38,0v7.09A3.2,3.2,0,0,1,147.35,190.9Zm0-11.48a1.19,1.19,0,0,0-1.19,1.19v7.09a1.19,1.19,0,1,0,2.38,0v-7.09A1.2,1.2,0,0,0,147.35,179.42Z" fill="#093f68"></path><rect x="149.54" y="178.42" width="4.38" height="11.47" rx="2.19" fill="#ffc9b0"></rect><path d="M151.73,190.9a3.2,3.2,0,0,1-3.19-3.2v-7.09a3.19,3.19,0,1,1,6.38,0v7.09A3.2,3.2,0,0,1,151.73,190.9Zm0-11.48a1.19,1.19,0,0,0-1.19,1.19v7.09a1.19,1.19,0,1,0,2.38,0v-7.09A1.19,1.19,0,0,0,151.73,179.42Z" fill="#093f68"></path><rect x="146.51" y="185.4" width="4.38" height="11.47" rx="2.19" transform="translate(339.84 42.44) rotate(90)" fill="#ffc9b0"></rect><path d="M152.25,194.33h-7.09a3.19,3.19,0,1,1,0-6.38h7.09a3.19,3.19,0,0,1,0,6.38ZM145.16,190a1.19,1.19,0,1,0,0,2.38h7.09a1.19,1.19,0,0,0,0-2.38Z" fill="#093f68"></path></g></svg>